<svg width="21" height="21" viewBox="0 0 21 21" fill="none" xmlns="http://www.w3.org/2000/svg">
    <path d="M1.14524 19.8547C1.88385 20.5932 2.86572 21 3.91018 20.9999L17.0899 21C18.1343 21 19.1162 20.5932 19.8548 19.8547C20.5933 19.1161 21 18.1342 20.9999 17.0899L21 3.91014C20.9999 1.75411 19.2458 0 17.0898 0H3.91018C1.75416 0 0 1.75411 0 3.91018V17.0897C0 18.1342 0.406711 19.1162 1.14524 19.8547ZM14.197 13.604L10.9351 16.8659C10.8197 16.9813 10.6633 17.0461 10.5001 17.0461C10.3369 17.0461 10.1805 16.9813 10.0651 16.8659L6.80326 13.6041C6.56295 13.3639 6.56296 12.9743 6.80318 12.734C7.04349 12.4939 7.43298 12.4938 7.67333 12.734L9.88496 14.9457L9.88488 8.38248C9.88488 8.04271 10.1603 7.76725 10.5001 7.76725C10.8399 7.76725 11.1154 8.04271 11.1154 8.38248L11.1155 14.9454L13.327 12.7339C13.4471 12.6137 13.6046 12.5536 13.762 12.5536C13.9195 12.5536 14.0769 12.6137 14.1971 12.7339C14.4372 12.9741 14.4372 13.3636 14.197 13.604ZM4.5691 3.95391H16.4308C16.7705 3.95391 17.046 4.22936 17.046 4.56914C17.046 4.90892 16.7705 5.18438 16.4308 5.18438H4.56906C4.22933 5.18438 3.95383 4.90892 3.95383 4.56914C3.95386 4.22936 4.22933 3.95391 4.5691 3.95391Z" fill="#006D33"/>
</svg>
