<svg width="12" height="13" viewBox="0 0 12 13" fill="none" xmlns="http://www.w3.org/2000/svg">
    <path d="M5.06758 1.40576C5.3976 0.554274 6.6024 0.554272 6.93242 1.40576L7.78895 3.61574C7.93084 3.98181 8.2738 4.231 8.66581 4.25281L11.0323 4.3845C11.9441 4.43524 12.3164 5.58108 11.6086 6.15807L9.77144 7.6556C9.46713 7.90366 9.33612 8.30685 9.43651 8.68641L10.0426 10.9778C10.2761 11.8606 9.30135 12.5688 8.53387 12.0739L6.54193 10.7894C6.21197 10.5767 5.78803 10.5767 5.45807 10.7894L3.46613 12.0739C2.69865 12.5688 1.72394 11.8606 1.95745 10.9778L2.56349 8.68641C2.66388 8.30685 2.53287 7.90366 2.22856 7.6556L0.391431 6.15807C-0.316402 5.58108 0.0559001 4.43524 0.967695 4.3845L3.33419 4.25281C3.72619 4.231 4.06916 3.98181 4.21105 3.61574L5.06758 1.40576Z" fill="url(#paint0_linear_5_191)"/>
    <defs>
        <linearGradient id="paint0_linear_5_191" x1="-0.5" y1="6.79486" x2="7.5" y2="6.79486" gradientUnits="userSpaceOnUse">
            <stop offset="0.812384" stop-color="#707070" stop-opacity="0.34"/>
            <stop offset="0.831089" stop-color="#707070" stop-opacity="0.34"/>
        </linearGradient>
    </defs>
</svg>
